<svg width="691" height="255" viewBox="0 0 691 255" fill="none" xmlns="http://www.w3.org/2000/svg">
<path d="M647.18 1.01606C647.201 1.01601 647.223 1.01599 647.244 1.01599C659.016 0.514112 656.444 12.5606 656.444 12.5606C656.444 12.5606 655.587 14.2672 655.587 17.078C656.873 16.0741 656.873 18.5838 656.444 21.0935C656.106 23.0734 655.462 23.2636 655.17 23.108C655.291 23.2523 655.106 25.6715 653.443 27.6187C651.728 31.2327 653.872 32.4708 655.158 32.6381C655.5 32.7133 655.914 32.7963 656.381 32.8899C659.029 33.4214 663.376 34.2937 666 36.0007C677.114 39.2422 677.077 43.3415 677.011 50.6816C677.006 51.267 677 51.8729 677 52.5007C676.327 55.1922 676.78 57.3806 677.368 60.2217C678.091 63.7142 679.018 68.1929 678.309 75.8047C678.529 76.7765 678.752 77.8876 678.973 78.9864C679.437 81.2927 679.889 83.5444 680.277 84.3377C680.562 85.3416 681.134 90.5617 681.134 103.411C681.134 105.55 681.999 106.676 682.5 107.329C682.705 107.596 682.849 107.783 682.849 107.929C683.563 110.606 683.796 116.161 681.738 116.964C679.166 117.968 674.879 118.469 673.164 115.458C671.449 112.446 671.02 109.937 673.593 107.929C675.651 106.323 675.308 102.909 674.879 101.404C673.021 97.0535 669.391 87.0482 669.734 81.828C669.389 78.3904 668.835 76.4192 668.296 74.5031C667.498 71.6629 667 66.1942 667 59.0007C665.285 63.0162 663.867 67.9814 664.724 73.0007C665.296 77.3509 665.843 86.9775 665.5 93.0007C665.202 98.2406 666.356 104.522 666.943 107.719C667.031 108.197 667.106 108.606 667.162 108.933C667.734 114.789 668.362 129.813 666.305 143.064C665.447 146.578 665.018 148.586 665.018 150.092C665.161 151.597 665.276 155.111 664.59 157.119C663.904 159.126 664.018 162.975 664.161 164.648C664.733 167.157 665.361 173.984 663.304 181.212C661.246 188.44 661.303 195.266 661.589 197.776C662.589 200.118 665.104 205.606 667.162 208.818C667.9 209.971 667.508 210.535 666.899 211.412C666.713 211.681 666.506 211.979 666.305 212.332C665.447 213.838 662.017 218.757 660.303 216.347C658.588 214.507 655.158 209.621 655.158 204.803C655.08 204.467 655.006 204.154 654.938 203.86L654.936 203.852C654.362 201.405 654.113 200.342 654.133 199.287C654.148 198.477 654.321 197.672 654.626 196.249C654.659 196.096 654.693 195.936 654.729 195.768C655.415 192.556 653.586 184.725 652.586 181.212C651.585 178.367 650.013 171.374 651.728 166.154C653.443 160.933 652.443 153.94 651.728 151.095C650.156 146.411 647.5 121.122 647.5 115.501L647.18 115.474L646.86 115.501C646.86 121.122 644.204 146.411 642.632 151.095C641.917 153.94 640.917 160.933 642.632 166.154C644.347 171.374 642.775 178.367 641.775 181.212C640.774 184.725 638.945 192.556 639.631 195.768C639.667 195.935 639.701 196.094 639.733 196.246L639.734 196.248C640.04 197.672 640.213 198.477 640.228 199.287C640.247 200.342 639.998 201.405 639.425 203.852C639.355 204.148 639.281 204.464 639.202 204.803C639.202 209.621 635.773 214.507 634.058 216.347C632.343 218.757 628.913 213.838 628.056 212.332C627.855 211.979 627.648 211.681 627.461 211.412C626.852 210.535 626.46 209.971 627.198 208.818C629.256 205.606 631.771 200.118 632.772 197.776C633.057 195.266 633.115 188.44 631.057 181.212C628.999 173.984 629.628 167.157 630.199 164.648C630.342 162.975 630.457 159.126 629.771 157.119C629.085 155.111 629.199 151.597 629.342 150.092C629.342 148.586 628.913 146.578 628.056 143.064C625.998 129.813 626.627 114.789 627.198 108.933C627.254 108.606 627.329 108.197 627.417 107.719C628.005 104.522 629.159 98.2406 628.86 93.0007C628.517 86.9775 629.065 77.3509 629.636 73.0007C630.494 67.9814 629.075 63.0162 627.36 59.0007C627.36 66.1942 626.863 71.6629 626.064 74.5031C625.526 76.4192 624.971 78.3904 624.626 81.828C624.969 87.0482 621.339 97.0535 619.481 101.404C619.053 102.909 618.71 106.323 620.768 107.929C623.34 109.937 622.911 112.446 621.196 115.458C619.481 118.469 615.194 117.968 612.622 116.964C610.564 116.161 610.797 110.606 611.511 107.929C611.511 107.783 611.656 107.596 611.86 107.329C612.362 106.676 613.226 105.55 613.226 103.411C613.226 90.5617 613.798 85.3416 614.084 84.3377C614.471 83.5444 614.924 81.2927 615.387 78.9864C615.608 77.8876 615.832 76.7765 616.052 75.8047C615.342 68.1929 616.269 63.7142 616.992 60.2217C617.58 57.3806 618.033 55.1922 617.36 52.5007C617.36 51.8729 617.355 51.267 617.349 50.6816C617.283 43.3415 617.246 39.2422 628.36 36.0007C630.985 34.2937 635.331 33.4214 637.979 32.8899C638.446 32.7963 638.86 32.7133 639.202 32.6381C640.488 32.4708 642.632 31.2327 640.917 27.6187C639.254 25.6715 639.069 23.2523 639.19 23.108C638.898 23.2636 638.254 23.0734 637.916 21.0935C637.487 18.5838 637.487 16.0741 638.774 17.078C638.774 14.2672 637.916 12.5606 637.916 12.5606C637.916 12.5606 635.344 0.514112 647.117 1.01599C647.138 1.01599 647.159 1.01601 647.18 1.01606Z" fill="#00AF80" stroke="#00AF80"/>
<ellipse cx="647" cy="82.0007" rx="20" ry="5" stroke="white" stroke-width="2" stroke-linecap="round" stroke-linejoin="round" stroke-dasharray="5 5"/>
<path d="M619 249.062V251H611.117V239.641H618.859V241.578H613.32V244.312H618.109V246.102H613.32V249.062H619ZM620.359 247.867V242.617H622.5V247.398C622.5 248.69 622.964 249.336 623.891 249.336C624.323 249.336 624.732 249.206 625.117 248.945C625.503 248.685 625.815 248.307 626.055 247.812V242.617H628.195V248.602C628.195 248.831 628.234 248.995 628.312 249.094C628.391 249.188 628.523 249.242 628.711 249.258V251C628.367 251.062 628.057 251.094 627.781 251.094C627.396 251.094 627.081 251.008 626.836 250.836C626.596 250.659 626.458 250.414 626.422 250.102L626.375 249.43C626.005 249.997 625.529 250.427 624.945 250.719C624.362 251.01 623.714 251.156 623 251.156C622.135 251.156 621.479 250.878 621.031 250.32C620.583 249.763 620.359 248.945 620.359 247.867ZM635.32 250.57C634.466 250.951 633.677 251.141 632.953 251.141C632.646 251.141 632.365 251.102 632.109 251.023C631.854 250.945 631.625 250.828 631.422 250.672C631.219 250.51 631.06 250.294 630.945 250.023C630.831 249.753 630.773 249.438 630.773 249.078V244.266H629.672V242.617H630.773V239.898H632.922V242.617H634.68V244.266H632.922V248.359C632.938 248.906 633.203 249.18 633.719 249.18C634.021 249.18 634.411 249.078 634.891 248.875L635.32 250.57ZM641.43 244.469C640.763 244.479 640.174 244.609 639.664 244.859C639.159 245.109 638.797 245.466 638.578 245.93V251H636.438V242.617H638.406V244.406C638.703 243.839 639.081 243.385 639.539 243.047C640.003 242.708 640.49 242.529 641 242.508C641.224 242.508 641.367 242.513 641.43 242.523V244.469ZM647.094 241.641L645.719 241.227L646.578 239.32H648.578L647.094 241.641ZM641.984 246.82C641.984 246.237 642.089 245.682 642.297 245.156C642.505 244.63 642.794 244.169 643.164 243.773C643.534 243.372 643.997 243.055 644.555 242.82C645.117 242.586 645.729 242.469 646.391 242.469C647.271 242.469 648.047 242.672 648.719 243.078C649.396 243.479 649.906 244.008 650.25 244.664C650.599 245.315 650.773 246.034 650.773 246.82C650.773 247.398 650.672 247.951 650.469 248.477C650.266 248.997 649.979 249.458 649.609 249.859C649.245 250.255 648.784 250.57 648.227 250.805C647.669 251.039 647.057 251.156 646.391 251.156C645.854 251.156 645.352 251.081 644.883 250.93C644.414 250.773 644.005 250.56 643.656 250.289C643.307 250.018 643.005 249.703 642.75 249.344C642.495 248.979 642.302 248.583 642.172 248.156C642.047 247.724 641.984 247.279 641.984 246.82ZM646.391 249.336C647.01 249.336 647.529 249.096 647.945 248.617C648.367 248.138 648.578 247.534 648.578 246.805C648.578 246.081 648.367 245.482 647.945 245.008C647.529 244.534 647.01 244.297 646.391 244.297C645.771 244.297 645.25 244.536 644.828 245.016C644.406 245.495 644.195 246.096 644.195 246.82C644.195 247.549 644.404 248.151 644.82 248.625C645.242 249.099 645.766 249.336 646.391 249.336ZM652.648 244.695H651.547V243.062H652.648V242.555C652.648 241.591 652.958 240.784 653.578 240.133C654.198 239.482 655.026 239.156 656.062 239.156C657.073 239.156 658.107 239.505 659.164 240.203L658.312 241.797C658.021 241.552 657.688 241.357 657.312 241.211C656.943 241.06 656.573 240.984 656.203 240.984C655.75 240.984 655.401 241.128 655.156 241.414C654.917 241.695 654.797 242.047 654.797 242.469V243.062H659.289V251H657.148V244.695H654.797V251H652.648V244.695ZM665.141 251.156C664.479 251.156 663.867 251.039 663.305 250.805C662.742 250.565 662.273 250.247 661.898 249.852C661.523 249.451 661.229 248.987 661.016 248.461C660.807 247.935 660.703 247.383 660.703 246.805C660.703 246.018 660.878 245.299 661.227 244.648C661.581 243.997 662.096 243.471 662.773 243.07C663.456 242.669 664.24 242.469 665.125 242.469C666.01 242.469 666.781 242.661 667.438 243.047C668.094 243.432 668.586 243.956 668.914 244.617L666.82 245.258C666.643 244.956 666.404 244.721 666.102 244.555C665.799 244.383 665.469 244.297 665.109 244.297C664.484 244.297 663.961 244.531 663.539 245C663.122 245.469 662.914 246.07 662.914 246.805C662.914 247.529 663.128 248.133 663.555 248.617C663.982 249.096 664.5 249.336 665.109 249.336C665.49 249.336 665.841 249.242 666.164 249.055C666.492 248.867 666.721 248.63 666.852 248.344L668.945 248.984C668.648 249.635 668.164 250.161 667.492 250.562C666.82 250.958 666.036 251.156 665.141 251.156ZM669.656 246.82C669.656 246.237 669.76 245.682 669.969 245.156C670.177 244.63 670.466 244.169 670.836 243.773C671.206 243.372 671.669 243.055 672.227 242.82C672.789 242.586 673.401 242.469 674.062 242.469C674.943 242.469 675.719 242.672 676.391 243.078C677.068 243.479 677.578 244.008 677.922 244.664C678.271 245.315 678.445 246.034 678.445 246.82C678.445 247.398 678.344 247.951 678.141 248.477C677.938 248.997 677.651 249.458 677.281 249.859C676.917 250.255 676.456 250.57 675.898 250.805C675.341 251.039 674.729 251.156 674.062 251.156C673.526 251.156 673.023 251.081 672.555 250.93C672.086 250.773 671.677 250.56 671.328 250.289C670.979 250.018 670.677 249.703 670.422 249.344C670.167 248.979 669.974 248.583 669.844 248.156C669.719 247.724 669.656 247.279 669.656 246.82ZM674.062 249.336C674.682 249.336 675.201 249.096 675.617 248.617C676.039 248.138 676.25 247.534 676.25 246.805C676.25 246.081 676.039 245.482 675.617 245.008C675.201 244.534 674.682 244.297 674.062 244.297C673.443 244.297 672.922 244.536 672.5 245.016C672.078 245.495 671.867 246.096 671.867 246.82C671.867 247.549 672.076 248.151 672.492 248.625C672.914 249.099 673.438 249.336 674.062 249.336ZM679.758 242.68L680.508 241.547L679.367 241.195L679.656 240.266L680.828 240.758L680.75 239.531H681.883L681.805 240.758L682.953 240.266L683.242 241.195L682.125 241.547L682.875 242.68L682.039 243.227L681.32 242.023L680.586 243.227L679.758 242.68Z" fill="#333333"/>
<path d="M512.551 36.6536C515.895 34.6458 521.685 33.14 524.162 32.6381C525.556 32.4708 527.878 31.2327 526.02 27.6187C524.218 25.6715 524.018 23.2523 524.149 23.108C523.833 23.2636 523.135 23.0734 522.769 21.0935C522.355 18.8579 522.31 16.6223 523.29 16.8703C523.161 16.2115 522.992 14.9156 522.769 12.5606C521.867 3.0238 526.379 1.01599 533.264 1.01599C546.018 0.514112 543.231 12.5606 543.231 12.5606C543.231 12.5606 542.302 14.2672 542.302 17.078C543.696 16.0741 543.696 18.5838 543.231 21.0935C542.865 23.0734 542.167 23.2636 541.851 23.108C541.982 23.2523 541.782 25.6715 539.98 27.6187C538.122 31.2327 540.444 32.4708 541.838 32.6381C544.315 33.14 550.105 34.6458 553.449 36.6536C559.486 39.1633 563.202 45.1865 564.131 50.2059C565.06 55.2253 566.918 68.2757 566.918 75.8047C566.918 78.8164 567.692 83.1665 568.311 84.3377C568.621 85.3416 569.24 90.5617 569.24 103.411C569.24 105.55 570.177 106.676 570.72 107.329C570.941 107.596 571.098 107.783 571.098 107.929C571.872 110.606 572.862 116.161 570.633 116.964C567.846 117.968 563.202 118.469 561.344 115.458C559.486 112.446 559.022 109.937 561.809 107.929C564.038 106.323 563.666 102.909 563.202 101.404C561.189 97.0535 557.257 87.0482 557.629 81.828C557.255 78.3905 556.654 76.4192 556.071 74.5032L556.071 74.5031C555.206 71.6629 554.378 68.944 554.378 61.7505C552.52 65.766 551.591 68.2757 552.52 73.2951C553.139 77.6452 554.285 87.8513 553.913 93.8745C553.542 99.8978 554.378 106.423 554.842 108.933C555.461 114.789 556.143 129.813 553.913 143.064C552.984 146.578 552.52 148.586 552.52 150.092C552.675 151.597 552.799 155.111 552.055 157.119C551.312 159.126 551.436 162.975 551.591 164.648C552.21 167.157 552.891 173.984 550.662 181.212C548.433 188.44 548.495 195.266 548.804 197.776C549.888 200.118 552.613 205.606 554.842 208.818C555.642 209.971 555.217 210.535 554.557 211.412C554.355 211.681 554.131 211.979 553.913 212.332C552.984 213.838 549.269 218.757 547.411 216.347C545.553 214.507 541.838 209.621 541.838 204.803C541.045 201.662 540.703 200.47 540.727 199.287C540.745 198.39 540.973 197.499 541.373 195.768C542.116 192.556 540.135 184.725 539.051 181.212C537.967 178.367 536.264 171.374 538.122 166.154C539.98 160.933 538.896 153.94 538.122 151.095C536.419 146.411 532.987 129.122 532.987 123.501C532.987 129.122 529.581 146.411 527.878 151.095C527.104 153.94 526.02 160.933 527.878 166.154C529.736 171.374 528.033 178.367 526.949 181.212C525.865 184.725 523.884 192.556 524.627 195.768C525.027 197.499 525.255 198.39 525.273 199.287C525.297 200.47 524.955 201.662 524.162 204.803C524.162 209.621 520.447 214.507 518.589 216.347C516.731 218.757 513.016 213.838 512.087 212.332C511.869 211.979 511.645 211.681 511.443 211.412C510.783 210.535 510.358 209.971 511.158 208.818C513.387 205.606 516.112 200.118 517.196 197.776C517.505 195.266 517.567 188.44 515.338 181.212C513.109 173.984 513.79 167.157 514.409 164.648C514.564 162.975 514.688 159.126 513.945 157.119C513.201 155.111 513.325 151.597 513.48 150.092C513.48 148.586 513.016 146.578 512.087 143.064C509.857 129.813 510.539 114.789 511.158 108.933C511.622 106.423 512.458 99.8978 512.087 93.8745C511.715 87.8513 512.861 77.6452 513.48 73.2951C514.409 68.2757 513.48 65.766 511.622 61.7505C511.622 68.944 510.794 71.6629 509.929 74.5031C509.346 76.4192 508.745 78.3904 508.371 81.828C508.743 87.0482 504.811 97.0535 502.798 101.404C502.334 102.909 501.962 106.323 504.191 107.929C506.978 109.937 506.514 112.446 504.656 115.458C502.798 118.469 498.154 117.968 495.367 116.964C493.138 116.161 494.128 110.606 494.902 107.929C494.902 107.783 495.059 107.596 495.28 107.329C495.823 106.676 496.76 105.55 496.76 103.411C496.76 90.5617 497.379 85.3416 497.689 84.3377C498.308 83.1665 499.082 78.8164 499.082 75.8047C499.082 68.2757 500.94 55.2253 501.869 50.2059C502.798 45.1865 506.514 39.1633 512.551 36.6536Z" fill="#FFD15C" stroke="#FFD15C"/>
<ellipse cx="533" cy="82.0007" rx="23" ry="5" stroke="white" stroke-width="2" stroke-linecap="round" stroke-linejoin="round" stroke-dasharray="5 5"/>
<path d="M499.633 242.618C499.44 242.404 499.034 242.165 498.414 241.899C497.794 241.628 497.182 241.493 496.578 241.493C495.984 241.493 495.534 241.605 495.227 241.829C494.919 242.048 494.766 242.363 494.766 242.774C494.766 242.889 494.776 242.996 494.797 243.094C494.823 243.188 494.867 243.277 494.93 243.36C494.997 243.443 495.062 243.516 495.125 243.579C495.193 243.641 495.292 243.704 495.422 243.766C495.557 243.829 495.677 243.884 495.781 243.93C495.885 243.972 496.036 244.024 496.234 244.087C496.438 244.144 496.609 244.193 496.75 244.235C496.891 244.272 497.094 244.324 497.359 244.391C497.844 244.516 498.258 244.641 498.602 244.766C498.951 244.886 499.284 245.04 499.602 245.227C499.924 245.41 500.182 245.615 500.375 245.844C500.568 246.068 500.721 246.342 500.836 246.665C500.951 246.983 501.008 247.344 501.008 247.751C501.008 248.339 500.893 248.858 500.664 249.305C500.44 249.748 500.128 250.1 499.727 250.36C499.331 250.621 498.888 250.813 498.398 250.938C497.909 251.063 497.375 251.126 496.797 251.126C495.948 251.126 495.104 250.998 494.266 250.743C493.432 250.483 492.688 250.121 492.031 249.657L493.008 247.751C493.279 248.022 493.792 248.321 494.547 248.649C495.307 248.977 496.068 249.141 496.828 249.141C497.427 249.141 497.88 249.042 498.188 248.844C498.5 248.641 498.656 248.352 498.656 247.977C498.656 247.743 498.602 247.545 498.492 247.384C498.388 247.217 498.185 247.063 497.883 246.923C497.586 246.782 497.326 246.675 497.102 246.602C496.878 246.529 496.497 246.42 495.961 246.274C495.924 246.264 495.896 246.256 495.875 246.251C495.854 246.246 495.828 246.238 495.797 246.227C495.766 246.217 495.737 246.209 495.711 246.204C495.143 246.042 494.669 245.878 494.289 245.712C493.909 245.54 493.578 245.334 493.297 245.094C493.016 244.855 492.81 244.576 492.68 244.259C492.555 243.936 492.492 243.558 492.492 243.126C492.492 242.376 492.68 241.727 493.055 241.18C493.43 240.634 493.924 240.227 494.539 239.962C495.159 239.696 495.859 239.563 496.641 239.563C498.047 239.563 499.37 239.983 500.609 240.821L499.633 242.618ZM501.938 246.821C501.938 246.238 502.042 245.683 502.25 245.157C502.458 244.631 502.747 244.17 503.117 243.774C503.487 243.373 503.951 243.055 504.508 242.821C505.07 242.587 505.682 242.469 506.344 242.469C507.224 242.469 508 242.673 508.672 243.079C509.349 243.48 509.859 244.009 510.203 244.665C510.552 245.316 510.727 246.035 510.727 246.821C510.727 247.399 510.625 247.951 510.422 248.477C510.219 248.998 509.932 249.459 509.562 249.86C509.198 250.256 508.737 250.571 508.18 250.805C507.622 251.04 507.01 251.157 506.344 251.157C505.807 251.157 505.305 251.081 504.836 250.93C504.367 250.774 503.958 250.561 503.609 250.29C503.26 250.019 502.958 249.704 502.703 249.344C502.448 248.98 502.255 248.584 502.125 248.157C502 247.725 501.938 247.279 501.938 246.821ZM506.344 249.337C506.964 249.337 507.482 249.097 507.898 248.618C508.32 248.139 508.531 247.535 508.531 246.805C508.531 246.081 508.32 245.483 507.898 245.009C507.482 244.535 506.964 244.298 506.344 244.298C505.724 244.298 505.203 244.537 504.781 245.016C504.359 245.496 504.148 246.097 504.148 246.821C504.148 247.55 504.357 248.152 504.773 248.626C505.195 249.1 505.719 249.337 506.344 249.337ZM514.047 249.548V251.001H512.172V239.321H514.312V244.087C514.615 243.571 515.01 243.173 515.5 242.891C515.995 242.61 516.56 242.469 517.195 242.469C517.904 242.469 518.539 242.67 519.102 243.071C519.669 243.472 520.104 244.006 520.406 244.673C520.708 245.334 520.859 246.058 520.859 246.844C520.859 247.641 520.69 248.371 520.352 249.032C520.013 249.688 519.542 250.206 518.938 250.587C518.339 250.967 517.672 251.157 516.938 251.157C516.307 251.157 515.74 251.016 515.234 250.735C514.734 250.449 514.339 250.053 514.047 249.548ZM518.664 246.86C518.664 246.162 518.456 245.561 518.039 245.055C517.622 244.55 517.102 244.298 516.477 244.298C516.018 244.298 515.594 244.451 515.203 244.759C514.818 245.066 514.521 245.456 514.312 245.93V247.93C514.453 248.342 514.721 248.68 515.117 248.946C515.513 249.206 515.922 249.337 516.344 249.337C517.016 249.337 517.57 249.097 518.008 248.618C518.445 248.134 518.664 247.548 518.664 246.86ZM527.305 244.469C526.638 244.48 526.049 244.61 525.539 244.86C525.034 245.11 524.672 245.467 524.453 245.93V251.001H522.312V242.618H524.281V244.407C524.578 243.839 524.956 243.386 525.414 243.048C525.878 242.709 526.365 242.529 526.875 242.509C527.099 242.509 527.242 242.514 527.305 242.524V244.469ZM532.281 251.157C531.406 251.157 530.628 250.959 529.945 250.563C529.263 250.167 528.745 249.647 528.391 249.001C528.036 248.35 527.859 247.636 527.859 246.86C527.859 246.063 528.036 245.334 528.391 244.673C528.745 244.006 529.263 243.472 529.945 243.071C530.628 242.67 531.411 242.469 532.297 242.469C532.964 242.469 533.573 242.587 534.125 242.821C534.682 243.055 535.143 243.373 535.508 243.774C535.878 244.17 536.161 244.626 536.359 245.141C536.562 245.657 536.664 246.201 536.664 246.774C536.664 247.071 536.648 247.311 536.617 247.493H530.133C530.185 248.128 530.424 248.639 530.852 249.024C531.279 249.404 531.781 249.594 532.359 249.594C532.792 249.594 533.195 249.49 533.57 249.282C533.951 249.068 534.208 248.792 534.344 248.454L536.18 248.969C535.867 249.626 535.365 250.154 534.672 250.555C533.984 250.956 533.188 251.157 532.281 251.157ZM530.086 246.134H534.469C534.406 245.503 534.169 244.996 533.758 244.61C533.352 244.219 532.854 244.024 532.266 244.024C531.688 244.024 531.193 244.219 530.781 244.61C530.37 245.001 530.138 245.509 530.086 246.134ZM540.109 249.532V254.407H537.969V242.618H539.844V244.055C540.161 243.555 540.568 243.167 541.062 242.891C541.557 242.61 542.115 242.469 542.734 242.469C543.469 242.469 544.138 242.665 544.742 243.055C545.346 243.446 545.815 243.972 546.148 244.634C546.487 245.29 546.656 246.009 546.656 246.79C546.656 247.597 546.5 248.334 546.188 249.001C545.875 249.667 545.438 250.193 544.875 250.579C544.312 250.964 543.685 251.157 542.992 251.157C542.352 251.157 541.781 251.014 541.281 250.727C540.786 250.441 540.396 250.042 540.109 249.532ZM544.461 246.79C544.461 246.087 544.24 245.496 543.797 245.016C543.354 244.537 542.802 244.298 542.141 244.298C541.724 244.298 541.315 244.433 540.914 244.704C540.518 244.969 540.25 245.303 540.109 245.704V247.673C540.302 248.152 540.599 248.55 541 248.868C541.401 249.18 541.826 249.337 542.273 249.337C542.904 249.337 543.424 249.084 543.836 248.579C544.253 248.074 544.461 247.477 544.461 246.79ZM552 251.157C551.125 251.157 550.346 250.959 549.664 250.563C548.982 250.167 548.464 249.647 548.109 249.001C547.755 248.35 547.578 247.636 547.578 246.86C547.578 246.063 547.755 245.334 548.109 244.673C548.464 244.006 548.982 243.472 549.664 243.071C550.346 242.67 551.13 242.469 552.016 242.469C552.682 242.469 553.292 242.587 553.844 242.821C554.401 243.055 554.862 243.373 555.227 243.774C555.596 244.17 555.88 244.626 556.078 245.141C556.281 245.657 556.383 246.201 556.383 246.774C556.383 247.071 556.367 247.311 556.336 247.493H549.852C549.904 248.128 550.143 248.639 550.57 249.024C550.997 249.404 551.5 249.594 552.078 249.594C552.51 249.594 552.914 249.49 553.289 249.282C553.669 249.068 553.927 248.792 554.062 248.454L555.898 248.969C555.586 249.626 555.083 250.154 554.391 250.555C553.703 250.956 552.906 251.157 552 251.157ZM549.805 246.134H554.188C554.125 245.503 553.888 244.996 553.477 244.61C553.07 244.219 552.573 244.024 551.984 244.024C551.406 244.024 550.911 244.219 550.5 244.61C550.089 245.001 549.857 245.509 549.805 246.134ZM560.773 251.157C560.049 251.157 559.362 251.037 558.711 250.798C558.06 250.558 557.505 250.214 557.047 249.766L557.812 248.376C558.812 249.167 559.773 249.563 560.695 249.563C561.117 249.563 561.451 249.488 561.695 249.337C561.945 249.18 562.07 248.956 562.07 248.665C562.07 248.597 562.062 248.537 562.047 248.485C562.036 248.428 562.01 248.376 561.969 248.329C561.932 248.277 561.898 248.233 561.867 248.196C561.836 248.16 561.781 248.123 561.703 248.087C561.625 248.045 561.56 248.014 561.508 247.993C561.456 247.967 561.372 247.936 561.258 247.899C561.143 247.858 561.052 247.829 560.984 247.813C560.922 247.792 560.815 247.761 560.664 247.719C560.513 247.673 560.396 247.636 560.312 247.61C559.901 247.48 559.562 247.363 559.297 247.259C559.036 247.154 558.781 247.032 558.531 246.891C558.281 246.751 558.089 246.602 557.953 246.446C557.818 246.29 557.708 246.105 557.625 245.891C557.547 245.678 557.508 245.433 557.508 245.157C557.508 244.334 557.818 243.678 558.438 243.188C559.057 242.699 559.88 242.454 560.906 242.454C562.161 242.454 563.211 242.85 564.055 243.641L563.188 245.001C562.354 244.36 561.56 244.04 560.805 244.04C560.43 244.04 560.12 244.108 559.875 244.243C559.63 244.378 559.508 244.6 559.508 244.907C559.508 245.183 559.617 245.389 559.836 245.524C560.055 245.654 560.453 245.8 561.031 245.962C561.495 246.097 561.862 246.214 562.133 246.313C562.404 246.407 562.682 246.527 562.969 246.673C563.26 246.818 563.479 246.972 563.625 247.134C563.776 247.29 563.898 247.483 563.992 247.712C564.086 247.941 564.133 248.206 564.133 248.509C564.133 249.331 563.828 249.98 563.219 250.454C562.615 250.923 561.799 251.157 560.773 251.157ZM565.062 246.821C565.062 246.238 565.167 245.683 565.375 245.157C565.583 244.631 565.872 244.17 566.242 243.774C566.612 243.373 567.076 243.055 567.633 242.821C568.195 242.587 568.807 242.469 569.469 242.469C570.349 242.469 571.125 242.673 571.797 243.079C572.474 243.48 572.984 244.009 573.328 244.665C573.677 245.316 573.852 246.035 573.852 246.821C573.852 247.399 573.75 247.951 573.547 248.477C573.344 248.998 573.057 249.459 572.688 249.86C572.323 250.256 571.862 250.571 571.305 250.805C570.747 251.04 570.135 251.157 569.469 251.157C568.932 251.157 568.43 251.081 567.961 250.93C567.492 250.774 567.083 250.561 566.734 250.29C566.385 250.019 566.083 249.704 565.828 249.344C565.573 248.98 565.38 248.584 565.25 248.157C565.125 247.725 565.062 247.279 565.062 246.821ZM569.469 249.337C570.089 249.337 570.607 249.097 571.023 248.618C571.445 248.139 571.656 247.535 571.656 246.805C571.656 246.081 571.445 245.483 571.023 245.009C570.607 244.535 570.089 244.298 569.469 244.298C568.849 244.298 568.328 244.537 567.906 245.016C567.484 245.496 567.273 246.097 567.273 246.821C567.273 247.55 567.482 248.152 567.898 248.626C568.32 249.1 568.844 249.337 569.469 249.337Z" fill="#333333"/>
<path d="M375.972 37.0008C379.572 35.0008 385.805 33.5008 388.472 33.0008C389.971 32.8341 392.471 31.6008 390.471 28.0008C388.532 26.0612 388.317 23.6512 388.457 23.5075C388.117 23.6625 387.366 23.473 386.971 21.5008C386.526 19.2738 386.477 17.0468 387.532 17.2938C387.394 16.6377 387.211 15.3467 386.971 13.0008C386 3.50085 390.858 1.50079 398.27 1.50079C412 1.00085 409 13.0008 409 13.0008C409 13.0008 408 14.7008 408 17.5008C409.5 16.5008 409.5 19.0008 409 21.5008C408.606 23.473 407.855 23.6625 407.514 23.5075C407.655 23.6512 407.44 26.0612 405.5 28.0008C403.5 31.6008 406 32.8341 407.5 33.0008C410.167 33.5008 416.4 35.0008 420 37.0008C426.5 39.5008 430.5 45.5008 431.5 50.5008C432.5 55.5008 434.5 68.5008 434.5 76.0008C434.5 79.0008 435.333 83.3341 436 84.5008C436.333 85.5008 437 90.7008 437 103.501C437 105.631 438.009 106.753 438.593 107.403C438.832 107.669 439 107.856 439 108.001C439.833 110.667 440.9 116.201 438.5 117.001C435.5 118.001 430.5 118.501 428.5 115.501C426.5 112.501 426 110.001 429 108.001C431.4 106.401 431 103.001 430.5 101.501C428.333 97.1674 424.1 87.2008 424.5 82.0008C424.097 78.5765 423.451 76.6129 422.823 74.7042C421.891 71.875 421 69.1665 421 62.0008C419 66.0008 418 68.5008 419 73.5008C419.667 77.8341 420.9 88.0008 420.5 94.0008C420.1 100.001 421 106.501 421.5 109.001C422.167 114.834 422.9 129.801 420.5 143.001C419.5 146.501 419 148.501 419 150.001C419.167 151.501 419.3 155.001 418.5 157.001C417.7 159.001 417.833 162.834 418 164.501C418.667 167.001 419.4 173.801 417 181.001C414.6 188.201 414.667 195.001 415 197.501C416.167 199.834 419.1 205.301 421.5 208.501C422.361 209.649 421.904 210.211 421.194 211.085C420.976 211.352 420.735 211.649 420.5 212.001C419.5 213.501 415.5 218.401 413.5 216.001C411.5 214.167 407.5 209.301 407.5 204.501C406.647 201.372 406.279 200.185 406.304 199.006C406.324 198.113 406.569 197.225 407 195.501C407.8 192.301 405.667 184.501 404.5 181.001C403.333 178.167 401.5 171.201 403.5 166.001C405.5 160.801 404.333 153.834 403.5 151.001C401.667 146.334 398 135.601 398 130.001H397.971C397.971 135.601 394.305 146.334 392.471 151.001C391.638 153.834 390.471 160.801 392.471 166.001C394.471 171.201 392.638 178.167 391.471 181.001C390.305 184.501 388.172 192.301 388.972 195.501C389.403 197.225 389.648 198.113 389.667 199.006C389.693 200.185 389.325 201.372 388.472 204.501C388.472 209.301 384.472 214.167 382.472 216.001C380.472 218.401 376.472 213.501 375.472 212.001C375.237 211.649 374.996 211.352 374.778 211.085C374.068 210.211 373.61 209.649 374.472 208.501C376.872 205.301 379.805 199.834 380.972 197.501C381.305 195.001 381.372 188.201 378.972 181.001C376.572 173.801 377.305 167.001 377.972 164.501C378.138 162.834 378.272 159.001 377.472 157.001C376.672 155.001 376.805 151.501 376.972 150.001C376.972 148.501 376.472 146.501 375.472 143.001C373.072 129.801 373.805 114.834 374.472 109.001C374.972 106.501 375.872 100.001 375.472 94.0008C375.072 88.0008 376.305 77.8341 376.972 73.5008C377.972 68.5008 376.972 66.0008 374.972 62.0008C374.972 69.1665 374.08 71.875 373.149 74.7042C372.521 76.6129 371.874 78.5765 371.472 82.0008C371.872 87.2008 367.638 97.1674 365.472 101.501C364.972 103.001 364.572 106.401 366.972 108.001C369.972 110.001 369.472 112.501 367.472 115.501C365.472 118.501 360.472 118.001 357.472 117.001C355.072 116.201 356.138 110.667 356.972 108.001C356.972 107.856 357.14 107.669 357.378 107.403C357.963 106.753 358.972 105.631 358.972 103.501C358.972 90.7008 359.638 85.5008 359.972 84.5008C360.638 83.3341 361.472 79.0008 361.472 76.0008C361.472 68.5008 363.472 55.5008 364.472 50.5008C365.472 45.5008 369.472 39.5008 375.972 37.0008Z" fill="#FB6B6D" stroke="#FB6B6D"/>
<ellipse cx="398" cy="84.0009" rx="25" ry="9" stroke="white" stroke-width="2" stroke-linecap="round" stroke-linejoin="round" stroke-dasharray="5 5"/>
<path d="M332.586 245.321C332.586 244.571 332.727 243.847 333.008 243.149C333.294 242.446 333.68 241.832 334.164 241.306C334.654 240.78 335.247 240.358 335.945 240.04C336.643 239.722 337.385 239.563 338.172 239.563C338.812 239.563 339.424 239.673 340.008 239.891C340.591 240.105 341.102 240.402 341.539 240.782C341.977 241.157 342.357 241.589 342.68 242.079C343.008 242.563 343.255 243.087 343.422 243.649C343.594 244.212 343.68 244.78 343.68 245.352C343.68 246.097 343.539 246.819 343.258 247.516C342.977 248.209 342.594 248.819 342.109 249.345C341.63 249.871 341.042 250.293 340.344 250.61C339.651 250.923 338.911 251.079 338.125 251.079C337.479 251.079 336.865 250.975 336.281 250.766C335.698 250.553 335.185 250.261 334.742 249.891C334.299 249.522 333.914 249.095 333.586 248.61C333.258 248.126 333.008 247.602 332.836 247.04C332.669 246.472 332.586 245.899 332.586 245.321ZM338.141 249.126C338.656 249.126 339.128 249.016 339.555 248.798C339.982 248.579 340.331 248.29 340.602 247.931C340.872 247.566 341.081 247.16 341.227 246.712C341.378 246.259 341.453 245.795 341.453 245.321C341.453 244.655 341.32 244.037 341.055 243.47C340.794 242.897 340.406 242.431 339.891 242.071C339.38 241.712 338.797 241.532 338.141 241.532C337.625 241.532 337.154 241.641 336.727 241.86C336.299 242.079 335.951 242.368 335.68 242.727C335.409 243.087 335.198 243.49 335.047 243.938C334.901 244.386 334.828 244.847 334.828 245.321C334.828 245.988 334.956 246.608 335.211 247.181C335.466 247.748 335.849 248.214 336.359 248.579C336.875 248.944 337.469 249.126 338.141 249.126ZM347.039 249.548V251.001H345.164V239.321H347.305V244.087C347.607 243.571 348.003 243.173 348.492 242.891C348.987 242.61 349.552 242.47 350.188 242.47C350.896 242.47 351.531 242.67 352.094 243.071C352.661 243.472 353.096 244.006 353.398 244.673C353.701 245.334 353.852 246.058 353.852 246.845C353.852 247.641 353.682 248.371 353.344 249.032C353.005 249.688 352.534 250.207 351.93 250.587C351.331 250.967 350.664 251.157 349.93 251.157C349.299 251.157 348.732 251.016 348.227 250.735C347.727 250.449 347.331 250.053 347.039 249.548ZM351.656 246.86C351.656 246.162 351.448 245.561 351.031 245.056C350.615 244.55 350.094 244.298 349.469 244.298C349.01 244.298 348.586 244.451 348.195 244.759C347.81 245.066 347.513 245.457 347.305 245.931V247.931C347.445 248.342 347.714 248.681 348.109 248.946C348.505 249.207 348.914 249.337 349.336 249.337C350.008 249.337 350.562 249.097 351 248.618C351.438 248.134 351.656 247.548 351.656 246.86ZM359.195 251.157C358.32 251.157 357.542 250.959 356.859 250.563C356.177 250.168 355.659 249.647 355.305 249.001C354.951 248.35 354.773 247.636 354.773 246.86C354.773 246.063 354.951 245.334 355.305 244.673C355.659 244.006 356.177 243.472 356.859 243.071C357.542 242.67 358.326 242.47 359.211 242.47C359.878 242.47 360.487 242.587 361.039 242.821C361.596 243.056 362.057 243.373 362.422 243.774C362.792 244.17 363.076 244.626 363.273 245.141C363.477 245.657 363.578 246.201 363.578 246.774C363.578 247.071 363.562 247.311 363.531 247.493H357.047C357.099 248.128 357.339 248.639 357.766 249.024C358.193 249.405 358.695 249.595 359.273 249.595C359.706 249.595 360.109 249.49 360.484 249.282C360.865 249.069 361.122 248.793 361.258 248.454L363.094 248.97C362.781 249.626 362.279 250.155 361.586 250.556C360.898 250.957 360.102 251.157 359.195 251.157ZM357 246.134H361.383C361.32 245.503 361.083 244.996 360.672 244.61C360.266 244.22 359.768 244.024 359.18 244.024C358.602 244.024 358.107 244.22 357.695 244.61C357.284 245.001 357.052 245.509 357 246.134ZM367.969 251.157C367.245 251.157 366.557 251.037 365.906 250.798C365.255 250.558 364.701 250.214 364.242 249.766L365.008 248.376C366.008 249.168 366.969 249.563 367.891 249.563C368.312 249.563 368.646 249.488 368.891 249.337C369.141 249.181 369.266 248.957 369.266 248.665C369.266 248.597 369.258 248.537 369.242 248.485C369.232 248.428 369.206 248.376 369.164 248.329C369.128 248.277 369.094 248.233 369.062 248.196C369.031 248.16 368.977 248.123 368.898 248.087C368.82 248.045 368.755 248.014 368.703 247.993C368.651 247.967 368.568 247.936 368.453 247.899C368.339 247.858 368.247 247.829 368.18 247.813C368.117 247.793 368.01 247.761 367.859 247.72C367.708 247.673 367.591 247.636 367.508 247.61C367.096 247.48 366.758 247.363 366.492 247.259C366.232 247.155 365.977 247.032 365.727 246.891C365.477 246.751 365.284 246.602 365.148 246.446C365.013 246.29 364.904 246.105 364.82 245.891C364.742 245.678 364.703 245.433 364.703 245.157C364.703 244.334 365.013 243.678 365.633 243.188C366.253 242.699 367.076 242.454 368.102 242.454C369.357 242.454 370.406 242.85 371.25 243.641L370.383 245.001C369.549 244.36 368.755 244.04 368 244.04C367.625 244.04 367.315 244.108 367.07 244.243C366.826 244.378 366.703 244.6 366.703 244.907C366.703 245.183 366.812 245.389 367.031 245.524C367.25 245.655 367.648 245.8 368.227 245.962C368.69 246.097 369.057 246.214 369.328 246.313C369.599 246.407 369.878 246.527 370.164 246.673C370.456 246.819 370.674 246.972 370.82 247.134C370.971 247.29 371.094 247.483 371.188 247.712C371.281 247.941 371.328 248.207 371.328 248.509C371.328 249.332 371.023 249.98 370.414 250.454C369.81 250.923 368.995 251.157 367.969 251.157ZM372.789 241.446V239.321H374.93V241.446H372.789ZM372.789 251.001V242.618H374.93V251.001H372.789ZM376.352 246.806C376.352 246.009 376.51 245.28 376.828 244.618C377.146 243.957 377.591 243.433 378.164 243.048C378.742 242.662 379.388 242.47 380.102 242.47C380.701 242.47 381.247 242.618 381.742 242.915C382.242 243.207 382.638 243.597 382.93 244.087V239.321H385.078V248.602C385.078 248.832 385.115 248.996 385.188 249.095C385.26 249.188 385.388 249.243 385.57 249.259V251.001C385.201 251.074 384.896 251.11 384.656 251.11C384.276 251.11 383.958 251.016 383.703 250.829C383.453 250.636 383.312 250.384 383.281 250.071L383.25 249.548C382.948 250.063 382.534 250.462 382.008 250.743C381.482 251.019 380.924 251.157 380.336 251.157C379.576 251.157 378.891 250.964 378.281 250.579C377.672 250.194 377.198 249.67 376.859 249.009C376.521 248.342 376.352 247.608 376.352 246.806ZM382.93 247.931V245.931C382.753 245.467 382.456 245.079 382.039 244.766C381.628 244.454 381.206 244.298 380.773 244.298C380.143 244.298 379.62 244.553 379.203 245.063C378.786 245.569 378.578 246.168 378.578 246.86C378.578 247.558 378.797 248.147 379.234 248.626C379.677 249.1 380.232 249.337 380.898 249.337C381.315 249.337 381.721 249.204 382.117 248.938C382.518 248.668 382.789 248.332 382.93 247.931ZM386.602 248.524C386.602 247.712 386.935 247.056 387.602 246.556C388.268 246.05 389.135 245.798 390.203 245.798C391.005 245.798 391.677 245.91 392.219 246.134V245.688C392.219 245.152 392.06 244.74 391.742 244.454C391.43 244.168 390.964 244.024 390.344 244.024C389.896 244.024 389.469 244.102 389.062 244.259C388.656 244.41 388.211 244.647 387.727 244.97L387.031 243.563C388.151 242.834 389.331 242.47 390.57 242.47C391.768 242.47 392.698 242.769 393.359 243.368C394.026 243.967 394.359 244.821 394.359 245.931V248.602C394.359 248.832 394.398 248.996 394.477 249.095C394.555 249.188 394.688 249.243 394.875 249.259V251.001C394.516 251.074 394.211 251.11 393.961 251.11C393.549 251.11 393.229 251.022 393 250.845C392.776 250.662 392.638 250.42 392.586 250.118L392.539 249.688C392.18 250.152 391.727 250.514 391.18 250.774C390.638 251.03 390.083 251.157 389.516 251.157C388.677 251.157 387.982 250.907 387.43 250.407C386.878 249.907 386.602 249.28 386.602 248.524ZM391.82 248.954C392.086 248.688 392.219 248.444 392.219 248.22V247.368C391.672 247.144 391.112 247.032 390.539 247.032C389.977 247.032 389.518 247.155 389.164 247.399C388.81 247.639 388.633 247.954 388.633 248.345C388.633 248.683 388.768 248.977 389.039 249.227C389.31 249.472 389.672 249.595 390.125 249.595C390.443 249.595 390.753 249.537 391.055 249.423C391.362 249.303 391.617 249.147 391.82 248.954ZM395.852 246.806C395.852 246.009 396.01 245.28 396.328 244.618C396.646 243.957 397.091 243.433 397.664 243.048C398.242 242.662 398.888 242.47 399.602 242.47C400.201 242.47 400.747 242.618 401.242 242.915C401.742 243.207 402.138 243.597 402.43 244.087V239.321H404.578V248.602C404.578 248.832 404.615 248.996 404.688 249.095C404.76 249.188 404.888 249.243 405.07 249.259V251.001C404.701 251.074 404.396 251.11 404.156 251.11C403.776 251.11 403.458 251.016 403.203 250.829C402.953 250.636 402.812 250.384 402.781 250.071L402.75 249.548C402.448 250.063 402.034 250.462 401.508 250.743C400.982 251.019 400.424 251.157 399.836 251.157C399.076 251.157 398.391 250.964 397.781 250.579C397.172 250.194 396.698 249.67 396.359 249.009C396.021 248.342 395.852 247.608 395.852 246.806ZM402.43 247.931V245.931C402.253 245.467 401.956 245.079 401.539 244.766C401.128 244.454 400.706 244.298 400.273 244.298C399.643 244.298 399.12 244.553 398.703 245.063C398.286 245.569 398.078 246.168 398.078 246.86C398.078 247.558 398.297 248.147 398.734 248.626C399.177 249.1 399.732 249.337 400.398 249.337C400.815 249.337 401.221 249.204 401.617 248.938C402.018 248.668 402.289 248.332 402.43 247.931ZM410.57 251.157C409.695 251.157 408.917 250.959 408.234 250.563C407.552 250.168 407.034 249.647 406.68 249.001C406.326 248.35 406.148 247.636 406.148 246.86C406.148 246.063 406.326 245.334 406.68 244.673C407.034 244.006 407.552 243.472 408.234 243.071C408.917 242.67 409.701 242.47 410.586 242.47C411.253 242.47 411.862 242.587 412.414 242.821C412.971 243.056 413.432 243.373 413.797 243.774C414.167 244.17 414.451 244.626 414.648 245.141C414.852 245.657 414.953 246.201 414.953 246.774C414.953 247.071 414.938 247.311 414.906 247.493H408.422C408.474 248.128 408.714 248.639 409.141 249.024C409.568 249.405 410.07 249.595 410.648 249.595C411.081 249.595 411.484 249.49 411.859 249.282C412.24 249.069 412.497 248.793 412.633 248.454L414.469 248.97C414.156 249.626 413.654 250.155 412.961 250.556C412.273 250.957 411.477 251.157 410.57 251.157ZM408.375 246.134H412.758C412.695 245.503 412.458 244.996 412.047 244.61C411.641 244.22 411.143 244.024 410.555 244.024C409.977 244.024 409.482 244.22 409.07 244.61C408.659 245.001 408.427 245.509 408.375 246.134ZM419.602 246.806C419.602 246.003 419.766 245.274 420.094 244.618C420.422 243.957 420.885 243.433 421.484 243.048C422.083 242.662 422.758 242.47 423.508 242.47C424.138 242.47 424.701 242.613 425.195 242.899C425.69 243.186 426.104 243.582 426.438 244.087V242.618H428.312V250.602C428.312 251.41 428.109 252.115 427.703 252.72C427.302 253.329 426.75 253.79 426.047 254.102C425.349 254.415 424.552 254.571 423.656 254.571C422.776 254.571 422.018 254.423 421.383 254.126C420.753 253.829 420.203 253.394 419.734 252.821L420.898 251.688C421.221 252.079 421.625 252.386 422.109 252.61C422.599 252.839 423.115 252.954 423.656 252.954C424 252.954 424.32 252.907 424.617 252.813C424.914 252.72 425.18 252.579 425.414 252.391C425.648 252.209 425.831 251.964 425.961 251.657C426.096 251.35 426.164 250.998 426.164 250.602V249.548C425.888 250.022 425.5 250.391 425 250.657C424.5 250.918 423.961 251.048 423.383 251.048C422.654 251.048 421.997 250.855 421.414 250.47C420.836 250.084 420.388 249.569 420.07 248.923C419.758 248.277 419.602 247.571 419.602 246.806ZM426.164 247.931V245.931C425.977 245.446 425.677 245.053 425.266 244.751C424.859 244.449 424.43 244.298 423.977 244.298C423.341 244.298 422.818 244.556 422.406 245.071C422 245.582 421.797 246.183 421.797 246.876C421.797 247.569 422.018 248.152 422.461 248.626C422.904 249.1 423.451 249.337 424.102 249.337C424.555 249.337 424.971 249.201 425.352 248.931C425.737 248.66 426.008 248.326 426.164 247.931ZM435.234 244.47C434.568 244.48 433.979 244.61 433.469 244.86C432.964 245.11 432.602 245.467 432.383 245.931V251.001H430.242V242.618H432.211V244.407C432.508 243.839 432.885 243.386 433.344 243.048C433.807 242.709 434.294 242.53 434.805 242.509C435.029 242.509 435.172 242.514 435.234 242.524V244.47ZM435.805 248.524C435.805 247.712 436.138 247.056 436.805 246.556C437.471 246.05 438.339 245.798 439.406 245.798C440.208 245.798 440.88 245.91 441.422 246.134V245.688C441.422 245.152 441.263 244.74 440.945 244.454C440.633 244.168 440.167 244.024 439.547 244.024C439.099 244.024 438.672 244.102 438.266 244.259C437.859 244.41 437.414 244.647 436.93 244.97L436.234 243.563C437.354 242.834 438.534 242.47 439.773 242.47C440.971 242.47 441.901 242.769 442.562 243.368C443.229 243.967 443.562 244.821 443.562 245.931V248.602C443.562 248.832 443.602 248.996 443.68 249.095C443.758 249.188 443.891 249.243 444.078 249.259V251.001C443.719 251.074 443.414 251.11 443.164 251.11C442.753 251.11 442.432 251.022 442.203 250.845C441.979 250.662 441.841 250.42 441.789 250.118L441.742 249.688C441.383 250.152 440.93 250.514 440.383 250.774C439.841 251.03 439.286 251.157 438.719 251.157C437.88 251.157 437.185 250.907 436.633 250.407C436.081 249.907 435.805 249.28 435.805 248.524ZM441.023 248.954C441.289 248.688 441.422 248.444 441.422 248.22V247.368C440.875 247.144 440.315 247.032 439.742 247.032C439.18 247.032 438.721 247.155 438.367 247.399C438.013 247.639 437.836 247.954 437.836 248.345C437.836 248.683 437.971 248.977 438.242 249.227C438.513 249.472 438.875 249.595 439.328 249.595C439.646 249.595 439.956 249.537 440.258 249.423C440.565 249.303 440.82 249.147 441.023 248.954ZM445.492 247.868V242.618H447.633V247.399C447.633 248.691 448.096 249.337 449.023 249.337C449.456 249.337 449.865 249.207 450.25 248.946C450.635 248.686 450.948 248.308 451.188 247.813V242.618H453.328V248.602C453.328 248.832 453.367 248.996 453.445 249.095C453.523 249.188 453.656 249.243 453.844 249.259V251.001C453.5 251.063 453.19 251.095 452.914 251.095C452.529 251.095 452.214 251.009 451.969 250.837C451.729 250.66 451.591 250.415 451.555 250.102L451.508 249.431C451.138 249.998 450.661 250.428 450.078 250.72C449.495 251.011 448.846 251.157 448.133 251.157C447.268 251.157 446.612 250.878 446.164 250.321C445.716 249.764 445.492 248.946 445.492 247.868ZM459.516 251.001V239.641H461.719V251.001H459.516Z" fill="#333333"/>
<path d="M236.044 1.01673C236.135 1.01624 236.226 1.01599 236.318 1.01599C251.688 0.514112 248.33 12.5606 248.33 12.5606C248.33 12.5606 247.21 14.2672 247.21 17.078C248.889 16.0741 248.889 18.5838 248.33 21.0935C247.888 23.0734 247.047 23.2636 246.666 23.108C246.824 23.2523 246.583 25.6715 244.412 27.6187C242.173 31.2327 244.971 32.4708 246.65 32.6381C249.636 33.14 256.613 34.6458 260.643 36.6536C267.92 39.1633 273.88 45.4814 275 50.5007C277.983 56.2955 282.087 64.5046 279.5 73.2951C279.5 76.3067 280.754 81.3295 281.5 82.5007C284.322 90.9659 283.552 95.0077 282.053 102.876C281.958 103.373 281.861 103.885 281.761 104.415C281.761 106.554 282.89 107.68 283.545 108.333C283.812 108.599 284 108.787 284 108.933C284.933 111.61 286.127 117.164 283.44 117.968C280.082 118.971 274.485 119.473 272.246 116.462C270.007 113.45 269.447 110.94 272.806 108.933C275.492 107.326 275.044 103.913 274.485 102.407C272.059 98.0573 267.052 88.2209 267.5 83.0007C267.049 79.5632 265.622 75.6758 265.622 75.6758C265.622 75.6758 263.5 73.2951 262 66.0007C262 69.5448 261.964 70.7048 262.114 71.8406C262.238 72.7878 262.491 73.7182 263 76.0007C263.746 80.3509 264.448 88.4775 264 94.5007C263.552 100.524 263.94 106.423 264.5 108.933C264.654 110.142 264.958 111.453 265.303 112.943C266.63 118.664 268.57 127.029 265 142.501C264.853 142.962 264.719 143.366 264.597 143.73C263.796 146.142 263.566 146.834 264 151.095C264.131 152.382 264.297 153.675 264.461 154.955C264.921 158.555 265.369 162.05 265 165.001C264.5 169.001 262.425 176.709 259.739 183.937C257.052 191.165 257.127 197.991 257.5 200.501C257.88 201.183 258.22 201.9 258.577 202.655C259.447 204.49 260.418 206.541 262.322 208.818C263.286 209.971 262.775 210.535 261.979 211.412C261.736 211.681 261.465 211.979 261.203 212.332C260.084 213.838 255.606 218.757 253.367 216.347C251.128 214.507 246.65 209.621 246.65 204.803C246.548 204.466 246.452 204.151 246.361 203.856L246.36 203.852C245.611 201.405 245.286 200.342 245.312 199.287C245.331 198.477 245.557 197.672 245.956 196.248C245.999 196.096 246.044 195.936 246.091 195.768C246.986 192.556 244.806 184.514 243.5 181.001C242.194 178.156 240.5 172.001 242.173 166.154C243.5 160.001 243.106 153.94 242.173 151.095C240.219 146.636 236.406 136.657 236.044 130.859C235.682 136.657 231.868 146.636 229.915 151.095C228.982 153.94 228.588 160.001 229.915 166.154C231.588 172.001 229.894 178.156 228.588 181.001C227.282 184.514 225.101 192.556 225.997 195.768C226.044 195.936 226.088 196.096 226.131 196.248C226.53 197.672 226.756 198.477 226.776 199.287C226.801 200.342 226.476 201.405 225.727 203.852L225.726 203.856C225.636 204.151 225.54 204.466 225.437 204.803C225.437 209.621 220.959 214.507 218.72 216.347C216.482 218.757 212.004 213.838 210.884 212.332C210.622 211.979 210.352 211.681 210.108 211.412C209.313 210.535 208.801 209.971 209.765 208.818C211.669 206.541 212.641 204.49 213.51 202.655C213.867 201.9 214.207 201.183 214.588 200.501C214.961 197.991 215.035 191.165 212.349 183.937C209.662 176.709 207.588 169.001 207.088 165.001C206.719 162.05 207.166 158.555 207.627 154.955C207.791 153.675 207.956 152.382 208.088 151.095C208.522 146.834 208.292 146.142 207.49 143.731C207.369 143.366 207.235 142.962 207.088 142.501C203.517 127.029 205.457 118.664 206.784 112.943C207.129 111.453 207.433 110.142 207.588 108.933C208.147 106.423 208.535 100.524 208.088 94.5007C207.64 88.4775 208.341 80.3509 209.088 76.0007C209.597 73.7182 209.849 72.7878 209.974 71.8406C210.123 70.7048 210.088 69.5448 210.088 66.0007C208.588 73.2951 206.465 75.6758 206.465 75.6758C206.465 75.6758 205.039 79.5632 204.588 83.0007C205.035 88.2209 200.028 98.0573 197.603 102.407C197.043 103.913 196.595 107.326 199.282 108.933C202.64 110.94 202.08 113.45 199.842 116.462C197.603 119.473 192.006 118.971 188.647 117.968C185.961 117.164 187.155 111.61 188.088 108.933C188.088 108.787 188.276 108.599 188.543 108.333C189.197 107.68 190.326 106.554 190.326 104.415C190.227 103.885 190.129 103.373 190.034 102.876C188.536 95.0077 187.766 90.9659 190.588 82.5007C191.334 81.3295 192.588 76.3067 192.588 73.2951C190 64.5046 194.104 56.2955 197.088 50.5007C198.207 45.4814 204.168 39.1633 211.444 36.6536C215.474 34.6458 222.452 33.14 225.437 32.6381C227.116 32.4708 229.915 31.2327 227.676 27.6187C225.504 25.6715 225.264 23.2523 225.421 23.108C225.04 23.2636 224.199 23.0734 223.758 21.0935C223.198 18.5838 223.198 16.0741 224.877 17.078C224.877 14.2672 223.758 12.5606 223.758 12.5606C223.758 12.5606 220.4 0.514112 235.769 1.01599C235.861 1.01599 235.953 1.01624 236.044 1.01673Z" fill="#FB6B6D" stroke="#FB6B6D"/>
<ellipse cx="236" cy="87.0007" rx="28" ry="9" stroke="white" stroke-width="2" stroke-linecap="round" stroke-linejoin="round" stroke-dasharray="5 5"/>
<path d="M168.797 245.321C168.797 244.571 168.938 243.847 169.219 243.149C169.505 242.446 169.891 241.831 170.375 241.305C170.865 240.779 171.458 240.358 172.156 240.04C172.854 239.722 173.596 239.563 174.383 239.563C175.023 239.563 175.635 239.673 176.219 239.891C176.802 240.105 177.312 240.402 177.75 240.782C178.188 241.157 178.568 241.589 178.891 242.079C179.219 242.563 179.466 243.087 179.633 243.649C179.805 244.212 179.891 244.779 179.891 245.352C179.891 246.097 179.75 246.818 179.469 247.516C179.188 248.209 178.805 248.818 178.32 249.344C177.841 249.871 177.253 250.292 176.555 250.61C175.862 250.923 175.122 251.079 174.336 251.079C173.69 251.079 173.076 250.975 172.492 250.766C171.909 250.553 171.396 250.261 170.953 249.891C170.51 249.522 170.125 249.094 169.797 248.61C169.469 248.126 169.219 247.602 169.047 247.04C168.88 246.472 168.797 245.899 168.797 245.321ZM174.352 249.126C174.867 249.126 175.339 249.016 175.766 248.798C176.193 248.579 176.542 248.29 176.812 247.93C177.083 247.566 177.292 247.16 177.438 246.712C177.589 246.259 177.664 245.795 177.664 245.321C177.664 244.654 177.531 244.037 177.266 243.469C177.005 242.897 176.617 242.43 176.102 242.071C175.591 241.712 175.008 241.532 174.352 241.532C173.836 241.532 173.365 241.641 172.938 241.86C172.51 242.079 172.161 242.368 171.891 242.727C171.62 243.087 171.409 243.49 171.258 243.938C171.112 244.386 171.039 244.847 171.039 245.321C171.039 245.988 171.167 246.608 171.422 247.18C171.677 247.748 172.06 248.214 172.57 248.579C173.086 248.943 173.68 249.126 174.352 249.126ZM183.25 249.548V251.001H181.375V239.321H183.516V244.087C183.818 243.571 184.214 243.173 184.703 242.891C185.198 242.61 185.763 242.469 186.398 242.469C187.107 242.469 187.742 242.67 188.305 243.071C188.872 243.472 189.307 244.006 189.609 244.673C189.911 245.334 190.062 246.058 190.062 246.844C190.062 247.641 189.893 248.371 189.555 249.032C189.216 249.688 188.745 250.206 188.141 250.587C187.542 250.967 186.875 251.157 186.141 251.157C185.51 251.157 184.943 251.016 184.438 250.735C183.938 250.449 183.542 250.053 183.25 249.548ZM187.867 246.86C187.867 246.162 187.659 245.561 187.242 245.055C186.826 244.55 186.305 244.298 185.68 244.298C185.221 244.298 184.797 244.451 184.406 244.759C184.021 245.066 183.724 245.456 183.516 245.93V247.93C183.656 248.342 183.924 248.68 184.32 248.946C184.716 249.206 185.125 249.337 185.547 249.337C186.219 249.337 186.773 249.097 187.211 248.618C187.648 248.134 187.867 247.548 187.867 246.86ZM195.406 251.157C194.531 251.157 193.753 250.959 193.07 250.563C192.388 250.167 191.87 249.647 191.516 249.001C191.161 248.35 190.984 247.636 190.984 246.86C190.984 246.063 191.161 245.334 191.516 244.673C191.87 244.006 192.388 243.472 193.07 243.071C193.753 242.67 194.536 242.469 195.422 242.469C196.089 242.469 196.698 242.587 197.25 242.821C197.807 243.055 198.268 243.373 198.633 243.774C199.003 244.17 199.286 244.626 199.484 245.141C199.688 245.657 199.789 246.201 199.789 246.774C199.789 247.071 199.773 247.311 199.742 247.493H193.258C193.31 248.128 193.549 248.639 193.977 249.024C194.404 249.404 194.906 249.594 195.484 249.594C195.917 249.594 196.32 249.49 196.695 249.282C197.076 249.068 197.333 248.792 197.469 248.454L199.305 248.969C198.992 249.626 198.49 250.154 197.797 250.555C197.109 250.956 196.312 251.157 195.406 251.157ZM193.211 246.134H197.594C197.531 245.503 197.294 244.996 196.883 244.61C196.477 244.219 195.979 244.024 195.391 244.024C194.812 244.024 194.318 244.219 193.906 244.61C193.495 245.001 193.263 245.509 193.211 246.134ZM204.18 251.157C203.456 251.157 202.768 251.037 202.117 250.798C201.466 250.558 200.911 250.214 200.453 249.766L201.219 248.376C202.219 249.167 203.18 249.563 204.102 249.563C204.523 249.563 204.857 249.488 205.102 249.337C205.352 249.18 205.477 248.956 205.477 248.665C205.477 248.597 205.469 248.537 205.453 248.485C205.443 248.428 205.417 248.376 205.375 248.329C205.339 248.277 205.305 248.233 205.273 248.196C205.242 248.16 205.188 248.123 205.109 248.087C205.031 248.045 204.966 248.014 204.914 247.993C204.862 247.967 204.779 247.936 204.664 247.899C204.549 247.858 204.458 247.829 204.391 247.813C204.328 247.792 204.221 247.761 204.07 247.719C203.919 247.673 203.802 247.636 203.719 247.61C203.307 247.48 202.969 247.363 202.703 247.259C202.443 247.154 202.188 247.032 201.938 246.891C201.688 246.751 201.495 246.602 201.359 246.446C201.224 246.29 201.115 246.105 201.031 245.891C200.953 245.678 200.914 245.433 200.914 245.157C200.914 244.334 201.224 243.678 201.844 243.188C202.464 242.699 203.286 242.454 204.312 242.454C205.568 242.454 206.617 242.85 207.461 243.641L206.594 245.001C205.76 244.36 204.966 244.04 204.211 244.04C203.836 244.04 203.526 244.108 203.281 244.243C203.036 244.378 202.914 244.6 202.914 244.907C202.914 245.183 203.023 245.389 203.242 245.524C203.461 245.654 203.859 245.8 204.438 245.962C204.901 246.097 205.268 246.214 205.539 246.313C205.81 246.407 206.089 246.527 206.375 246.673C206.667 246.818 206.885 246.972 207.031 247.134C207.182 247.29 207.305 247.483 207.398 247.712C207.492 247.941 207.539 248.206 207.539 248.509C207.539 249.331 207.234 249.98 206.625 250.454C206.021 250.923 205.206 251.157 204.18 251.157ZM209 241.446V239.321H211.141V241.446H209ZM209 251.001V242.618H211.141V251.001H209ZM212.562 246.805C212.562 246.009 212.721 245.279 213.039 244.618C213.357 243.956 213.802 243.433 214.375 243.048C214.953 242.662 215.599 242.469 216.312 242.469C216.911 242.469 217.458 242.618 217.953 242.915C218.453 243.206 218.849 243.597 219.141 244.087V239.321H221.289V248.602C221.289 248.831 221.326 248.996 221.398 249.094C221.471 249.188 221.599 249.243 221.781 249.259V251.001C221.411 251.074 221.107 251.11 220.867 251.11C220.487 251.11 220.169 251.016 219.914 250.829C219.664 250.636 219.523 250.384 219.492 250.071L219.461 249.548C219.159 250.063 218.745 250.462 218.219 250.743C217.693 251.019 217.135 251.157 216.547 251.157C215.786 251.157 215.102 250.964 214.492 250.579C213.883 250.193 213.409 249.67 213.07 249.009C212.732 248.342 212.562 247.608 212.562 246.805ZM219.141 247.93V245.93C218.964 245.467 218.667 245.079 218.25 244.766C217.839 244.454 217.417 244.298 216.984 244.298C216.354 244.298 215.831 244.553 215.414 245.063C214.997 245.568 214.789 246.167 214.789 246.86C214.789 247.558 215.008 248.147 215.445 248.626C215.888 249.1 216.443 249.337 217.109 249.337C217.526 249.337 217.932 249.204 218.328 248.938C218.729 248.667 219 248.331 219.141 247.93ZM222.812 248.524C222.812 247.712 223.146 247.055 223.812 246.555C224.479 246.05 225.346 245.798 226.414 245.798C227.216 245.798 227.888 245.91 228.43 246.134V245.688C228.43 245.152 228.271 244.74 227.953 244.454C227.641 244.167 227.174 244.024 226.555 244.024C226.107 244.024 225.68 244.102 225.273 244.259C224.867 244.41 224.422 244.647 223.938 244.969L223.242 243.563C224.362 242.834 225.542 242.469 226.781 242.469C227.979 242.469 228.909 242.769 229.57 243.368C230.237 243.967 230.57 244.821 230.57 245.93V248.602C230.57 248.831 230.609 248.996 230.688 249.094C230.766 249.188 230.898 249.243 231.086 249.259V251.001C230.727 251.074 230.422 251.11 230.172 251.11C229.76 251.11 229.44 251.022 229.211 250.844C228.987 250.662 228.849 250.42 228.797 250.118L228.75 249.688C228.391 250.152 227.938 250.514 227.391 250.774C226.849 251.029 226.294 251.157 225.727 251.157C224.888 251.157 224.193 250.907 223.641 250.407C223.089 249.907 222.812 249.279 222.812 248.524ZM228.031 248.954C228.297 248.688 228.43 248.443 228.43 248.219V247.368C227.883 247.144 227.323 247.032 226.75 247.032C226.188 247.032 225.729 247.154 225.375 247.399C225.021 247.639 224.844 247.954 224.844 248.344C224.844 248.683 224.979 248.977 225.25 249.227C225.521 249.472 225.883 249.594 226.336 249.594C226.654 249.594 226.964 249.537 227.266 249.423C227.573 249.303 227.828 249.147 228.031 248.954ZM232.062 246.805C232.062 246.009 232.221 245.279 232.539 244.618C232.857 243.956 233.302 243.433 233.875 243.048C234.453 242.662 235.099 242.469 235.812 242.469C236.411 242.469 236.958 242.618 237.453 242.915C237.953 243.206 238.349 243.597 238.641 244.087V239.321H240.789V248.602C240.789 248.831 240.826 248.996 240.898 249.094C240.971 249.188 241.099 249.243 241.281 249.259V251.001C240.911 251.074 240.607 251.11 240.367 251.11C239.987 251.11 239.669 251.016 239.414 250.829C239.164 250.636 239.023 250.384 238.992 250.071L238.961 249.548C238.659 250.063 238.245 250.462 237.719 250.743C237.193 251.019 236.635 251.157 236.047 251.157C235.286 251.157 234.602 250.964 233.992 250.579C233.383 250.193 232.909 249.67 232.57 249.009C232.232 248.342 232.062 247.608 232.062 246.805ZM238.641 247.93V245.93C238.464 245.467 238.167 245.079 237.75 244.766C237.339 244.454 236.917 244.298 236.484 244.298C235.854 244.298 235.331 244.553 234.914 245.063C234.497 245.568 234.289 246.167 234.289 246.86C234.289 247.558 234.508 248.147 234.945 248.626C235.388 249.1 235.943 249.337 236.609 249.337C237.026 249.337 237.432 249.204 237.828 248.938C238.229 248.667 238.5 248.331 238.641 247.93ZM246.781 251.157C245.906 251.157 245.128 250.959 244.445 250.563C243.763 250.167 243.245 249.647 242.891 249.001C242.536 248.35 242.359 247.636 242.359 246.86C242.359 246.063 242.536 245.334 242.891 244.673C243.245 244.006 243.763 243.472 244.445 243.071C245.128 242.67 245.911 242.469 246.797 242.469C247.464 242.469 248.073 242.587 248.625 242.821C249.182 243.055 249.643 243.373 250.008 243.774C250.378 244.17 250.661 244.626 250.859 245.141C251.062 245.657 251.164 246.201 251.164 246.774C251.164 247.071 251.148 247.311 251.117 247.493H244.633C244.685 248.128 244.924 248.639 245.352 249.024C245.779 249.404 246.281 249.594 246.859 249.594C247.292 249.594 247.695 249.49 248.07 249.282C248.451 249.068 248.708 248.792 248.844 248.454L250.68 248.969C250.367 249.626 249.865 250.154 249.172 250.555C248.484 250.956 247.688 251.157 246.781 251.157ZM244.586 246.134H248.969C248.906 245.503 248.669 244.996 248.258 244.61C247.852 244.219 247.354 244.024 246.766 244.024C246.188 244.024 245.693 244.219 245.281 244.61C244.87 245.001 244.638 245.509 244.586 246.134ZM255.812 246.805C255.812 246.003 255.977 245.274 256.305 244.618C256.633 243.956 257.096 243.433 257.695 243.048C258.294 242.662 258.969 242.469 259.719 242.469C260.349 242.469 260.911 242.613 261.406 242.899C261.901 243.186 262.315 243.581 262.648 244.087V242.618H264.523V250.602C264.523 251.41 264.32 252.115 263.914 252.719C263.513 253.329 262.961 253.79 262.258 254.102C261.56 254.415 260.763 254.571 259.867 254.571C258.987 254.571 258.229 254.423 257.594 254.126C256.964 253.829 256.414 253.394 255.945 252.821L257.109 251.688C257.432 252.079 257.836 252.386 258.32 252.61C258.81 252.839 259.326 252.954 259.867 252.954C260.211 252.954 260.531 252.907 260.828 252.813C261.125 252.719 261.391 252.579 261.625 252.391C261.859 252.209 262.042 251.964 262.172 251.657C262.307 251.35 262.375 250.998 262.375 250.602V249.548C262.099 250.022 261.711 250.391 261.211 250.657C260.711 250.917 260.172 251.048 259.594 251.048C258.865 251.048 258.208 250.855 257.625 250.469C257.047 250.084 256.599 249.568 256.281 248.923C255.969 248.277 255.812 247.571 255.812 246.805ZM262.375 247.93V245.93C262.188 245.446 261.888 245.053 261.477 244.751C261.07 244.449 260.641 244.298 260.188 244.298C259.552 244.298 259.029 244.555 258.617 245.071C258.211 245.581 258.008 246.183 258.008 246.876C258.008 247.568 258.229 248.152 258.672 248.626C259.115 249.1 259.661 249.337 260.312 249.337C260.766 249.337 261.182 249.201 261.562 248.93C261.948 248.66 262.219 248.326 262.375 247.93ZM271.445 244.469C270.779 244.48 270.19 244.61 269.68 244.86C269.174 245.11 268.812 245.467 268.594 245.93V251.001H266.453V242.618H268.422V244.407C268.719 243.839 269.096 243.386 269.555 243.048C270.018 242.709 270.505 242.529 271.016 242.509C271.24 242.509 271.383 242.514 271.445 242.524V244.469ZM272.016 248.524C272.016 247.712 272.349 247.055 273.016 246.555C273.682 246.05 274.549 245.798 275.617 245.798C276.419 245.798 277.091 245.91 277.633 246.134V245.688C277.633 245.152 277.474 244.74 277.156 244.454C276.844 244.167 276.378 244.024 275.758 244.024C275.31 244.024 274.883 244.102 274.477 244.259C274.07 244.41 273.625 244.647 273.141 244.969L272.445 243.563C273.565 242.834 274.745 242.469 275.984 242.469C277.182 242.469 278.112 242.769 278.773 243.368C279.44 243.967 279.773 244.821 279.773 245.93V248.602C279.773 248.831 279.812 248.996 279.891 249.094C279.969 249.188 280.102 249.243 280.289 249.259V251.001C279.93 251.074 279.625 251.11 279.375 251.11C278.964 251.11 278.643 251.022 278.414 250.844C278.19 250.662 278.052 250.42 278 250.118L277.953 249.688C277.594 250.152 277.141 250.514 276.594 250.774C276.052 251.029 275.497 251.157 274.93 251.157C274.091 251.157 273.396 250.907 272.844 250.407C272.292 249.907 272.016 249.279 272.016 248.524ZM277.234 248.954C277.5 248.688 277.633 248.443 277.633 248.219V247.368C277.086 247.144 276.526 247.032 275.953 247.032C275.391 247.032 274.932 247.154 274.578 247.399C274.224 247.639 274.047 247.954 274.047 248.344C274.047 248.683 274.182 248.977 274.453 249.227C274.724 249.472 275.086 249.594 275.539 249.594C275.857 249.594 276.167 249.537 276.469 249.423C276.776 249.303 277.031 249.147 277.234 248.954ZM281.703 247.868V242.618H283.844V247.399C283.844 248.691 284.307 249.337 285.234 249.337C285.667 249.337 286.076 249.206 286.461 248.946C286.846 248.686 287.159 248.308 287.398 247.813V242.618H289.539V248.602C289.539 248.831 289.578 248.996 289.656 249.094C289.734 249.188 289.867 249.243 290.055 249.259V251.001C289.711 251.063 289.401 251.094 289.125 251.094C288.74 251.094 288.424 251.009 288.18 250.837C287.94 250.66 287.802 250.415 287.766 250.102L287.719 249.43C287.349 249.998 286.872 250.428 286.289 250.719C285.706 251.011 285.057 251.157 284.344 251.157C283.479 251.157 282.823 250.878 282.375 250.321C281.927 249.764 281.703 248.946 281.703 247.868ZM295.727 251.001V239.641H297.93V251.001H295.727ZM300.305 251.001V239.641H302.508V251.001H300.305Z" fill="#333333"/>
<path d="M69.9868 130.014H70.0134C70.0134 135.636 74.5291 146.411 76.7869 151.096C77.8132 153.94 78.2469 160.001 76.7869 166.154C74.9464 172.001 76.8101 178.156 78.2469 181.001C79.6837 184.514 82.0825 192.556 81.0973 195.768L81.0542 195.908C81.0181 196.025 80.9832 196.139 80.9494 196.248C80.5104 197.672 80.262 198.477 80.2405 199.287C80.2124 200.342 80.5699 201.405 81.3936 203.852C81.4932 204.148 81.5997 204.464 81.713 204.803C81.713 209.621 86.6393 214.507 89.1024 216.347C91.5655 218.757 96.4917 213.838 97.7233 212.332C98.012 211.979 98.3093 211.681 98.5773 211.412C99.4522 210.536 100.015 209.971 98.9548 208.818C96.8597 206.541 95.791 204.49 94.8345 202.655C94.4416 201.901 94.0676 201.183 93.6493 200.501C93.2388 197.991 93.1567 191.165 96.1124 183.937C99.0681 176.709 101.35 169.001 101.901 165.001C102.306 162.05 101.814 158.555 101.307 154.956C101.127 153.676 100.945 152.382 100.8 151.096C100.323 146.834 100.576 146.142 101.458 143.731C101.591 143.366 101.739 142.962 101.901 142.501C105.828 127.029 103.694 118.664 102.234 112.943C101.854 111.453 101.52 110.143 101.35 108.933C100.735 106.423 100.308 100.524 100.8 94.5008C101.293 88.4775 100.521 80.3509 99.7002 76.0008C99.1388 73.7126 98.8606 72.7833 98.7241 71.8336C98.5611 70.7001 98.6 69.5376 98.6 66.0008C100.25 73.2951 102.585 75.6759 102.585 75.6759C102.585 75.6759 104.155 79.5633 104.651 83.0008C104.158 88.2209 109.667 98.0574 112.335 102.408C112.951 103.913 113.444 107.327 110.488 108.933C106.793 110.94 107.409 113.45 109.872 116.462C112.335 119.473 118.493 118.971 122.188 117.968C125.144 117.165 123.83 111.61 122.804 108.933C122.804 108.787 122.597 108.6 122.303 108.333C121.583 107.68 120.341 106.554 120.341 104.415C120.45 103.886 120.558 103.373 120.662 102.876C122.311 95.0078 123.158 90.966 120.053 82.5008C119.232 81.3296 117.853 76.3067 117.853 73.2951C120.7 64.5047 116.184 56.2956 112.902 50.5008C111.671 45.4814 105.113 39.1633 97.1075 36.6537C92.6739 34.6459 84.9972 33.1401 81.713 32.6382C79.8657 32.4708 75.7265 31.2327 78.1896 27.6188C80.5784 25.6716 80.8435 23.2523 80.67 23.1081C81.0893 23.2636 82.0143 23.0734 82.5001 21.0936C83.1159 18.5839 83.1159 16.0742 81.2685 17.0781C82.5001 15.0008 82.5001 12.5606 82.5001 12.5606C82.5001 12.5606 84.0001 0.500795 70.3457 1.01605C70.23 1.01605 70.1148 1.01638 70.0001 1.01703C69.8854 1.01638 69.7702 1.01605 69.6545 1.01605C56.0001 0.500795 57.5001 12.5606 57.5001 12.5606C57.5001 12.5606 57.5001 15.0008 58.7316 17.0781C56.8843 16.0742 56.8843 18.5839 57.5001 21.0936C57.9859 23.0734 58.9109 23.2636 59.3301 23.1081C59.1567 23.2523 59.4218 25.6716 61.8105 27.6188C64.2737 31.2327 60.1344 32.4708 58.2871 32.6382C55.003 33.1401 47.3263 34.6459 42.8927 36.6537C34.8876 39.1633 28.3295 45.4814 27.098 50.5008C23.8159 56.2956 19.3005 64.5047 22.1472 73.2951C22.1472 76.3067 20.7679 81.3296 19.9469 82.5008C16.8425 90.966 17.6895 95.0078 19.3383 102.876C19.4425 103.373 19.5498 103.886 19.6596 104.415C19.6596 106.554 18.4176 107.68 17.6975 108.333C17.4035 108.6 17.1965 108.787 17.1965 108.933C16.1702 111.61 14.8565 117.165 17.8123 117.968C21.5069 118.971 27.6647 119.473 30.1278 116.462C32.5909 113.45 33.2067 110.94 29.512 108.933C26.5563 107.327 27.0489 103.913 27.6647 102.408C30.3331 98.0574 35.8418 88.2209 35.3492 83.0008C35.8454 79.5633 37.415 75.6759 37.415 75.6759C37.415 75.6759 39.7499 73.2951 41.4002 66.0008C41.4002 69.5376 41.4391 70.7001 41.2761 71.8336C41.1396 72.7833 40.8614 73.7126 40.3 76.0008C39.4789 80.3509 38.7072 88.4775 39.1998 94.5008C39.6924 100.524 39.2655 106.423 38.6497 108.933C38.4801 110.143 38.1458 111.453 37.7657 112.943C36.3061 118.664 34.1717 127.029 38.0997 142.501C38.2614 142.962 38.4091 143.366 38.5424 143.731C39.4245 146.142 39.6777 146.834 39.1998 151.096C39.0555 152.382 38.8734 153.676 38.6931 154.956C38.1861 158.555 37.6939 162.05 38.0997 165.001C38.6497 169.001 40.9321 176.709 43.8878 183.937C46.8435 191.165 46.7614 197.991 46.3509 200.501C45.9325 201.183 45.5586 201.901 45.1657 202.655C44.2092 204.49 43.1405 206.541 41.0454 208.818C39.9847 209.971 40.548 210.536 41.4229 211.412C41.6909 211.681 41.9881 211.979 42.2769 212.332C43.5085 213.838 48.4347 218.757 50.8978 216.347C53.3609 214.507 58.2871 209.621 58.2871 204.803C58.4005 204.464 58.507 204.148 58.6066 203.852C59.4303 201.405 59.7878 200.342 59.7597 199.287C59.7382 198.477 59.4898 197.672 59.0508 196.248C59.0037 196.096 58.9544 195.936 58.9029 195.768C57.9177 192.556 60.3165 184.514 61.7532 181.001C63.1901 178.156 65.0537 172.001 63.2133 166.154C61.7532 160.001 62.187 153.94 63.2133 151.096C65.4711 146.411 69.9868 135.636 69.9868 130.014Z" fill="#FB6B6D" stroke="#FB6B6D"/>
<ellipse cx="70" cy="87.0008" rx="31" ry="9" stroke="white" stroke-width="2" stroke-linecap="round" stroke-linejoin="round" stroke-dasharray="5 5"/>
<path d="M0.507812 245.321C0.507812 244.571 0.648438 243.847 0.929688 243.149C1.21615 242.446 1.60156 241.831 2.08594 241.305C2.57552 240.779 3.16927 240.358 3.86719 240.04C4.5651 239.722 5.30729 239.563 6.09375 239.563C6.73438 239.563 7.34635 239.673 7.92969 239.891C8.51302 240.105 9.02344 240.402 9.46094 240.782C9.89844 241.157 10.2786 241.589 10.6016 242.079C10.9297 242.563 11.1771 243.087 11.3438 243.649C11.5156 244.212 11.6016 244.779 11.6016 245.352C11.6016 246.097 11.4609 246.818 11.1797 247.516C10.8984 248.209 10.5156 248.818 10.0312 249.344C9.55208 249.871 8.96354 250.292 8.26562 250.61C7.57292 250.923 6.83333 251.079 6.04688 251.079C5.40104 251.079 4.78646 250.975 4.20312 250.766C3.61979 250.553 3.10677 250.261 2.66406 249.891C2.22135 249.522 1.83594 249.094 1.50781 248.61C1.17969 248.126 0.929688 247.602 0.757812 247.04C0.591146 246.472 0.507812 245.899 0.507812 245.321ZM6.0625 249.126C6.57812 249.126 7.04948 249.016 7.47656 248.798C7.90365 248.579 8.2526 248.29 8.52344 247.93C8.79427 247.566 9.0026 247.16 9.14844 246.712C9.29948 246.259 9.375 245.795 9.375 245.321C9.375 244.654 9.24219 244.037 8.97656 243.469C8.71615 242.897 8.32812 242.43 7.8125 242.071C7.30208 241.712 6.71875 241.532 6.0625 241.532C5.54688 241.532 5.07552 241.641 4.64844 241.86C4.22135 242.079 3.8724 242.368 3.60156 242.727C3.33073 243.087 3.11979 243.49 2.96875 243.938C2.82292 244.386 2.75 244.847 2.75 245.321C2.75 245.988 2.8776 246.608 3.13281 247.18C3.38802 247.748 3.77083 248.214 4.28125 248.579C4.79688 248.943 5.39062 249.126 6.0625 249.126ZM14.9609 249.548V251.001H13.0859V239.321H15.2266V244.087C15.5286 243.571 15.9245 243.173 16.4141 242.891C16.9089 242.61 17.474 242.469 18.1094 242.469C18.8177 242.469 19.4531 242.67 20.0156 243.071C20.5833 243.472 21.0182 244.006 21.3203 244.673C21.6224 245.334 21.7734 246.058 21.7734 246.844C21.7734 247.641 21.6042 248.371 21.2656 249.032C20.9271 249.688 20.4557 250.206 19.8516 250.587C19.2526 250.967 18.5859 251.157 17.8516 251.157C17.2214 251.157 16.6536 251.016 16.1484 250.735C15.6484 250.449 15.2526 250.053 14.9609 249.548ZM19.5781 246.86C19.5781 246.162 19.3698 245.561 18.9531 245.055C18.5365 244.55 18.0156 244.298 17.3906 244.298C16.9323 244.298 16.5078 244.451 16.1172 244.759C15.7318 245.066 15.4349 245.456 15.2266 245.93V247.93C15.3672 248.342 15.6354 248.68 16.0312 248.946C16.4271 249.206 16.8359 249.337 17.2578 249.337C17.9297 249.337 18.4844 249.097 18.9219 248.618C19.3594 248.134 19.5781 247.548 19.5781 246.86ZM27.1172 251.157C26.2422 251.157 25.4635 250.959 24.7812 250.563C24.099 250.167 23.5807 249.647 23.2266 249.001C22.8724 248.35 22.6953 247.636 22.6953 246.86C22.6953 246.063 22.8724 245.334 23.2266 244.673C23.5807 244.006 24.099 243.472 24.7812 243.071C25.4635 242.67 26.2474 242.469 27.1328 242.469C27.7995 242.469 28.4089 242.587 28.9609 242.821C29.5182 243.055 29.9792 243.373 30.3438 243.774C30.7135 244.17 30.9974 244.626 31.1953 245.141C31.3984 245.657 31.5 246.201 31.5 246.774C31.5 247.071 31.4844 247.311 31.4531 247.493H24.9688C25.0208 248.128 25.2604 248.639 25.6875 249.024C26.1146 249.404 26.6172 249.594 27.1953 249.594C27.6276 249.594 28.0312 249.49 28.4062 249.282C28.7865 249.068 29.0443 248.792 29.1797 248.454L31.0156 248.969C30.7031 249.626 30.2005 250.154 29.5078 250.555C28.8203 250.956 28.0234 251.157 27.1172 251.157ZM24.9219 246.134H29.3047C29.2422 245.503 29.0052 244.996 28.5938 244.61C28.1875 244.219 27.6901 244.024 27.1016 244.024C26.5234 244.024 26.0286 244.219 25.6172 244.61C25.2057 245.001 24.974 245.509 24.9219 246.134ZM35.8906 251.157C35.1667 251.157 34.4792 251.037 33.8281 250.798C33.1771 250.558 32.6224 250.214 32.1641 249.766L32.9297 248.376C33.9297 249.167 34.8906 249.563 35.8125 249.563C36.2344 249.563 36.5677 249.488 36.8125 249.337C37.0625 249.18 37.1875 248.956 37.1875 248.665C37.1875 248.597 37.1797 248.537 37.1641 248.485C37.1536 248.428 37.1276 248.376 37.0859 248.329C37.0495 248.277 37.0156 248.233 36.9844 248.196C36.9531 248.16 36.8984 248.123 36.8203 248.087C36.7422 248.045 36.6771 248.014 36.625 247.993C36.5729 247.967 36.4896 247.936 36.375 247.899C36.2604 247.858 36.1693 247.829 36.1016 247.813C36.0391 247.792 35.9323 247.761 35.7812 247.719C35.6302 247.673 35.513 247.636 35.4297 247.61C35.0182 247.48 34.6797 247.363 34.4141 247.259C34.1536 247.154 33.8984 247.032 33.6484 246.891C33.3984 246.751 33.2057 246.602 33.0703 246.446C32.9349 246.29 32.8255 246.105 32.7422 245.891C32.6641 245.678 32.625 245.433 32.625 245.157C32.625 244.334 32.9349 243.678 33.5547 243.188C34.1745 242.699 34.9974 242.454 36.0234 242.454C37.2786 242.454 38.3281 242.85 39.1719 243.641L38.3047 245.001C37.4714 244.36 36.6771 244.04 35.9219 244.04C35.5469 244.04 35.237 244.108 34.9922 244.243C34.7474 244.378 34.625 244.6 34.625 244.907C34.625 245.183 34.7344 245.389 34.9531 245.524C35.1719 245.654 35.5703 245.8 36.1484 245.962C36.612 246.097 36.9792 246.214 37.25 246.313C37.5208 246.407 37.7995 246.527 38.0859 246.673C38.3776 246.818 38.5964 246.972 38.7422 247.134C38.8932 247.29 39.0156 247.483 39.1094 247.712C39.2031 247.941 39.25 248.206 39.25 248.509C39.25 249.331 38.9453 249.98 38.3359 250.454C37.7318 250.923 36.9167 251.157 35.8906 251.157ZM40.7109 241.446V239.321H42.8516V241.446H40.7109ZM40.7109 251.001V242.618H42.8516V251.001H40.7109ZM44.2734 246.805C44.2734 246.009 44.4323 245.279 44.75 244.618C45.0677 243.956 45.513 243.433 46.0859 243.048C46.6641 242.662 47.3099 242.469 48.0234 242.469C48.6224 242.469 49.1693 242.618 49.6641 242.915C50.1641 243.206 50.5599 243.597 50.8516 244.087V239.321H53V248.602C53 248.831 53.0365 248.996 53.1094 249.094C53.1823 249.188 53.3099 249.243 53.4922 249.259V251.001C53.1224 251.074 52.8177 251.11 52.5781 251.11C52.1979 251.11 51.8802 251.016 51.625 250.829C51.375 250.636 51.2344 250.384 51.2031 250.071L51.1719 249.548C50.8698 250.063 50.4557 250.462 49.9297 250.743C49.4036 251.019 48.8464 251.157 48.2578 251.157C47.4974 251.157 46.8125 250.964 46.2031 250.579C45.5938 250.193 45.1198 249.67 44.7812 249.009C44.4427 248.342 44.2734 247.608 44.2734 246.805ZM50.8516 247.93V245.93C50.6745 245.467 50.3776 245.079 49.9609 244.766C49.5495 244.454 49.1276 244.298 48.6953 244.298C48.0651 244.298 47.5417 244.553 47.125 245.063C46.7083 245.568 46.5 246.167 46.5 246.86C46.5 247.558 46.7188 248.147 47.1562 248.626C47.599 249.1 48.1536 249.337 48.8203 249.337C49.237 249.337 49.6432 249.204 50.0391 248.938C50.4401 248.667 50.7109 248.331 50.8516 247.93ZM54.5234 248.524C54.5234 247.712 54.8568 247.055 55.5234 246.555C56.1901 246.05 57.0573 245.798 58.125 245.798C58.9271 245.798 59.599 245.91 60.1406 246.134V245.688C60.1406 245.152 59.9818 244.74 59.6641 244.454C59.3516 244.167 58.8854 244.024 58.2656 244.024C57.8177 244.024 57.3906 244.102 56.9844 244.259C56.5781 244.41 56.1328 244.647 55.6484 244.969L54.9531 243.563C56.0729 242.834 57.2526 242.469 58.4922 242.469C59.6901 242.469 60.6198 242.769 61.2812 243.368C61.9479 243.967 62.2812 244.821 62.2812 245.93V248.602C62.2812 248.831 62.3203 248.996 62.3984 249.094C62.4766 249.188 62.6094 249.243 62.7969 249.259V251.001C62.4375 251.074 62.1328 251.11 61.8828 251.11C61.4714 251.11 61.151 251.022 60.9219 250.844C60.6979 250.662 60.5599 250.42 60.5078 250.118L60.4609 249.688C60.1016 250.152 59.6484 250.514 59.1016 250.774C58.5599 251.029 58.0052 251.157 57.4375 251.157C56.599 251.157 55.9036 250.907 55.3516 250.407C54.7995 249.907 54.5234 249.279 54.5234 248.524ZM59.7422 248.954C60.0078 248.688 60.1406 248.443 60.1406 248.219V247.368C59.5938 247.144 59.0339 247.032 58.4609 247.032C57.8984 247.032 57.4401 247.154 57.0859 247.399C56.7318 247.639 56.5547 247.954 56.5547 248.344C56.5547 248.683 56.6901 248.977 56.9609 249.227C57.2318 249.472 57.5938 249.594 58.0469 249.594C58.3646 249.594 58.6745 249.537 58.9766 249.423C59.2839 249.303 59.5391 249.147 59.7422 248.954ZM63.7734 246.805C63.7734 246.009 63.9323 245.279 64.25 244.618C64.5677 243.956 65.013 243.433 65.5859 243.048C66.1641 242.662 66.8099 242.469 67.5234 242.469C68.1224 242.469 68.6693 242.618 69.1641 242.915C69.6641 243.206 70.0599 243.597 70.3516 244.087V239.321H72.5V248.602C72.5 248.831 72.5365 248.996 72.6094 249.094C72.6823 249.188 72.8099 249.243 72.9922 249.259V251.001C72.6224 251.074 72.3177 251.11 72.0781 251.11C71.6979 251.11 71.3802 251.016 71.125 250.829C70.875 250.636 70.7344 250.384 70.7031 250.071L70.6719 249.548C70.3698 250.063 69.9557 250.462 69.4297 250.743C68.9036 251.019 68.3464 251.157 67.7578 251.157C66.9974 251.157 66.3125 250.964 65.7031 250.579C65.0938 250.193 64.6198 249.67 64.2812 249.009C63.9427 248.342 63.7734 247.608 63.7734 246.805ZM70.3516 247.93V245.93C70.1745 245.467 69.8776 245.079 69.4609 244.766C69.0495 244.454 68.6276 244.298 68.1953 244.298C67.5651 244.298 67.0417 244.553 66.625 245.063C66.2083 245.568 66 246.167 66 246.86C66 247.558 66.2188 248.147 66.6562 248.626C67.099 249.1 67.6536 249.337 68.3203 249.337C68.737 249.337 69.1432 249.204 69.5391 248.938C69.9401 248.667 70.2109 248.331 70.3516 247.93ZM78.4922 251.157C77.6172 251.157 76.8385 250.959 76.1562 250.563C75.474 250.167 74.9557 249.647 74.6016 249.001C74.2474 248.35 74.0703 247.636 74.0703 246.86C74.0703 246.063 74.2474 245.334 74.6016 244.673C74.9557 244.006 75.474 243.472 76.1562 243.071C76.8385 242.67 77.6224 242.469 78.5078 242.469C79.1745 242.469 79.7839 242.587 80.3359 242.821C80.8932 243.055 81.3542 243.373 81.7188 243.774C82.0885 244.17 82.3724 244.626 82.5703 245.141C82.7734 245.657 82.875 246.201 82.875 246.774C82.875 247.071 82.8594 247.311 82.8281 247.493H76.3438C76.3958 248.128 76.6354 248.639 77.0625 249.024C77.4896 249.404 77.9922 249.594 78.5703 249.594C79.0026 249.594 79.4062 249.49 79.7812 249.282C80.1615 249.068 80.4193 248.792 80.5547 248.454L82.3906 248.969C82.0781 249.626 81.5755 250.154 80.8828 250.555C80.1953 250.956 79.3984 251.157 78.4922 251.157ZM76.2969 246.134H80.6797C80.6172 245.503 80.3802 244.996 79.9688 244.61C79.5625 244.219 79.0651 244.024 78.4766 244.024C77.8984 244.024 77.4036 244.219 76.9922 244.61C76.5807 245.001 76.349 245.509 76.2969 246.134ZM87.5234 246.805C87.5234 246.003 87.6875 245.274 88.0156 244.618C88.3438 243.956 88.8073 243.433 89.4062 243.048C90.0052 242.662 90.6797 242.469 91.4297 242.469C92.0599 242.469 92.6224 242.613 93.1172 242.899C93.612 243.186 94.026 243.581 94.3594 244.087V242.618H96.2344V250.602C96.2344 251.41 96.0312 252.115 95.625 252.719C95.224 253.329 94.6719 253.79 93.9688 254.102C93.2708 254.415 92.474 254.571 91.5781 254.571C90.6979 254.571 89.9401 254.423 89.3047 254.126C88.6745 253.829 88.125 253.394 87.6562 252.821L88.8203 251.688C89.1432 252.079 89.5469 252.386 90.0312 252.61C90.5208 252.839 91.0365 252.954 91.5781 252.954C91.9219 252.954 92.2422 252.907 92.5391 252.813C92.8359 252.719 93.1016 252.579 93.3359 252.391C93.5703 252.209 93.7526 251.964 93.8828 251.657C94.0182 251.35 94.0859 250.998 94.0859 250.602V249.548C93.8099 250.022 93.4219 250.391 92.9219 250.657C92.4219 250.917 91.8828 251.048 91.3047 251.048C90.5755 251.048 89.9193 250.855 89.3359 250.469C88.7578 250.084 88.3099 249.568 87.9922 248.923C87.6797 248.277 87.5234 247.571 87.5234 246.805ZM94.0859 247.93V245.93C93.8984 245.446 93.599 245.053 93.1875 244.751C92.7812 244.449 92.3516 244.298 91.8984 244.298C91.263 244.298 90.7396 244.555 90.3281 245.071C89.9219 245.581 89.7188 246.183 89.7188 246.876C89.7188 247.568 89.9401 248.152 90.3828 248.626C90.8255 249.1 91.3724 249.337 92.0234 249.337C92.4766 249.337 92.8932 249.201 93.2734 248.93C93.6589 248.66 93.9297 248.326 94.0859 247.93ZM103.156 244.469C102.49 244.48 101.901 244.61 101.391 244.86C100.885 245.11 100.523 245.467 100.305 245.93V251.001H98.1641V242.618H100.133V244.407C100.43 243.839 100.807 243.386 101.266 243.048C101.729 242.709 102.216 242.529 102.727 242.509C102.951 242.509 103.094 242.514 103.156 242.524V244.469ZM103.727 248.524C103.727 247.712 104.06 247.055 104.727 246.555C105.393 246.05 106.26 245.798 107.328 245.798C108.13 245.798 108.802 245.91 109.344 246.134V245.688C109.344 245.152 109.185 244.74 108.867 244.454C108.555 244.167 108.089 244.024 107.469 244.024C107.021 244.024 106.594 244.102 106.188 244.259C105.781 244.41 105.336 244.647 104.852 244.969L104.156 243.563C105.276 242.834 106.456 242.469 107.695 242.469C108.893 242.469 109.823 242.769 110.484 243.368C111.151 243.967 111.484 244.821 111.484 245.93V248.602C111.484 248.831 111.523 248.996 111.602 249.094C111.68 249.188 111.812 249.243 112 249.259V251.001C111.641 251.074 111.336 251.11 111.086 251.11C110.674 251.11 110.354 251.022 110.125 250.844C109.901 250.662 109.763 250.42 109.711 250.118L109.664 249.688C109.305 250.152 108.852 250.514 108.305 250.774C107.763 251.029 107.208 251.157 106.641 251.157C105.802 251.157 105.107 250.907 104.555 250.407C104.003 249.907 103.727 249.279 103.727 248.524ZM108.945 248.954C109.211 248.688 109.344 248.443 109.344 248.219V247.368C108.797 247.144 108.237 247.032 107.664 247.032C107.102 247.032 106.643 247.154 106.289 247.399C105.935 247.639 105.758 247.954 105.758 248.344C105.758 248.683 105.893 248.977 106.164 249.227C106.435 249.472 106.797 249.594 107.25 249.594C107.568 249.594 107.878 249.537 108.18 249.423C108.487 249.303 108.742 249.147 108.945 248.954ZM113.414 247.868V242.618H115.555V247.399C115.555 248.691 116.018 249.337 116.945 249.337C117.378 249.337 117.786 249.206 118.172 248.946C118.557 248.686 118.87 248.308 119.109 247.813V242.618H121.25V248.602C121.25 248.831 121.289 248.996 121.367 249.094C121.445 249.188 121.578 249.243 121.766 249.259V251.001C121.422 251.063 121.112 251.094 120.836 251.094C120.451 251.094 120.135 251.009 119.891 250.837C119.651 250.66 119.513 250.415 119.477 250.102L119.43 249.43C119.06 249.998 118.583 250.428 118 250.719C117.417 251.011 116.768 251.157 116.055 251.157C115.19 251.157 114.534 250.878 114.086 250.321C113.638 249.764 113.414 248.946 113.414 247.868ZM127.438 251.001V239.641H129.641V251.001H127.438ZM132.016 251.001V239.641H134.219V251.001H132.016ZM136.594 251.001V239.641H138.797V251.001H136.594Z" fill="#333333"/>
</svg>
